<?xml version="1.0" encoding="UTF-8"?> <svg xmlns="http://www.w3.org/2000/svg" id="Layer_1" data-name="Layer 1" viewBox="0 0 543.19 174.79"><defs><style>.cls-1{fill:#003da5;}.cls-2{fill:#fff;}.cls-3{fill:#78be21;}</style></defs><path class="cls-1" d="M174.17,184.8v85.36q0,19.18-.4,24.66a18.76,18.76,0,0,1-3.62,9.9,16.57,16.57,0,0,1-8.71,6.12c-3.69,1.15-9.21,1.7-16.62,1.7H128.11V290.21c2,.15,3.51.23,4.41.23a8.66,8.66,0,0,0,5.7-1.73,6.36,6.36,0,0,0,2.41-4.26,93.45,93.45,0,0,0,.32-9.78V184.8Z" transform="translate(-128.11 -182.07)"></path><path class="cls-1" d="M243,184.8l19.06,127.74H228.18l-1.8-23h-12.2l-1.85,23H178.05L195,184.8ZM225.49,267q-2.43-21.8-5.14-53.8-5,36.8-6.27,53.8Z" transform="translate(-128.11 -182.07)"></path><polygon class="cls-1" points="213.33 2.73 213.33 130.46 184.2 130.46 166.91 72.38 166.91 130.46 139.19 130.46 139.19 2.73 166.91 2.73 185.59 60.23 185.59 2.73 213.33 2.73"></polygon><path class="cls-1" d="M411.33,184.81h33.45c9.06,0,16,.7,20.88,2.13s8.52,3.48,11,6.16a21.24,21.24,0,0,1,4.95,9.76q1.31,5.71,1.31,17.72v11.13q0,12.25-2.52,17.84c-1.7,3.77-4.78,6.61-9.29,8.62s-10.38,3-17.63,3h-8.91v51.38H411.33Zm33.22,21.91v32.47c.94,0,1.76.07,2.46.07,3.05,0,5.17-.74,6.36-2.24s1.78-4.61,1.78-9.34V217.2q0-6.54-2-8.5c-1.37-1.31-4.24-2-8.55-2" transform="translate(-128.11 -182.07)"></path><path class="cls-1" d="M489.58,184.81h23.5q23.5,0,31.84,1.82a21.93,21.93,0,0,1,13.55,9.27c3.49,5,5.27,12.92,5.27,23.82,0,9.94-1.26,16.64-3.72,20.05s-7.34,5.49-14.61,6.18c6.57,1.61,11,3.81,13.26,6.54A19.65,19.65,0,0,1,562.9,260q.84,3.42.84,18.86v33.66H532.91v-42.4c0-6.84-.55-11.07-1.62-12.7s-3.9-2.43-8.49-2.43v57.53H489.58Zm33.22,21.91v28.43c3.74,0,6.35-.51,7.86-1.54s2.25-4.35,2.25-10v-7c0-4-.74-6.7-2.19-8s-4.09-1.91-7.92-1.91" transform="translate(-128.11 -182.07)"></path><path class="cls-1" d="M648.58,259.61c0,12.83-.32,21.94-.9,27.27a30.59,30.59,0,0,1-18.6,24.85,46.76,46.76,0,0,1-18.94,3.53,48.32,48.32,0,0,1-18.44-3.34,30.75,30.75,0,0,1-19.05-24.68q-.95-7.87-.94-27.63V237.74q0-19.29.9-27.28a30.49,30.49,0,0,1,18.6-24.85,47.12,47.12,0,0,1,18.93-3.54,48.33,48.33,0,0,1,18.45,3.36,30.78,30.78,0,0,1,19,24.68q.95,7.9,1,27.63Zm-33.22-42.05q0-8.94-1-11.42a4,4,0,0,0-4.08-2.5,4.58,4.58,0,0,0-4,2c-.94,1.35-1.39,5.32-1.39,11.91v59.77q0,11.18.92,13.75c.59,1.75,2,2.62,4.22,2.62a4.1,4.1,0,0,0,4.36-3q.95-3,1-14.3Z" transform="translate(-128.11 -182.07)"></path><circle class="cls-2" cx="250.96" cy="66.6" r="53.85"></circle><path class="cls-3" d="M418.74,219.35a49.33,49.33,0,0,0-88.25,37.88A100.6,100.6,0,0,1,348,246.61a99.18,99.18,0,0,1,76.11-3.89,93,93,0,0,0-47.95,2.42A28.12,28.12,0,0,0,402.34,271a28.14,28.14,0,0,0-26.08,26.25h-.12a28.13,28.13,0,0,0-26.2-26.14A28.11,28.11,0,0,0,376,245.19a96.15,96.15,0,0,0-11.34,4.5,93.27,93.27,0,0,0-29.33,21.79,50.61,50.61,0,0,0,4.07,6.5,49.33,49.33,0,1,0,79.35-58.63Zm-22.17,6.37a16.89,16.89,0,0,0-4.52,10.49H392a17,17,0,0,0-15.83-15.79,17,17,0,0,0,15.77-15.87H392a17,17,0,0,0,15.83,15.8A16.87,16.87,0,0,0,396.57,225.72Zm16,31.7a8.38,8.38,0,0,0-2.26,5.24h0a8.49,8.49,0,0,0-7.91-7.89,8.48,8.48,0,0,0,7.88-7.93h0a8.51,8.51,0,0,0,7.91,7.9A8.44,8.44,0,0,0,412.55,257.42Z" transform="translate(-128.11 -182.07)"></path><path class="cls-1" d="M128.11,343.6v-.07a13,13,0,0,1,13.38-13.27,13.2,13.2,0,0,1,10.11,4L148,338.36a9.45,9.45,0,0,0-6.56-2.9c-4.32,0-7.44,3.59-7.44,8v.08c0,4.39,3,8.06,7.44,8.06,2.93,0,4.73-1.17,6.74-3l3.6,3.63a13.12,13.12,0,0,1-10.52,4.58A13,13,0,0,1,128.11,343.6Z" transform="translate(-128.11 -182.07)"></path><path class="cls-1" d="M156.29,330.7h5.65v20.52h12.79v5.13H156.29Z" transform="translate(-128.11 -182.07)"></path><path class="cls-1" d="M179,330.7h19.35v5H184.58v5.2h12.1v5h-12.1v5.39h13.93v5H179Z" transform="translate(-128.11 -182.07)"></path><path class="cls-1" d="M212.33,330.51h5.2l11,25.84h-5.9l-2.35-5.75H209.43l-2.35,5.75h-5.75Zm5.93,15.1-3.4-8.32-3.41,8.32Z" transform="translate(-128.11 -182.07)"></path><path class="cls-1" d="M232.48,330.7h5.21l12,15.79V330.7h5.57v25.65h-4.8L238.05,340v16.31h-5.57Z" transform="translate(-128.11 -182.07)"></path><path class="cls-1" d="M261.69,330.7h5.64v25.65h-5.64Z" transform="translate(-128.11 -182.07)"></path><path class="cls-1" d="M273.75,330.7H279l12,15.79V330.7h5.58v25.65h-4.81L279.32,340v16.31h-5.57Z" transform="translate(-128.11 -182.07)"></path><path class="cls-1" d="M301.56,343.6v-.07A13.17,13.17,0,0,1,315,330.26a14.08,14.08,0,0,1,10.08,3.51l-3.55,4.29a9.45,9.45,0,0,0-6.71-2.6c-4.1,0-7.37,3.63-7.37,8v.08c0,4.69,3.23,8.13,7.77,8.13a9,9,0,0,0,5.32-1.54v-3.66h-5.68v-4.88H326v11.14a16.64,16.64,0,0,1-11,4.07C307.06,356.79,301.56,351.19,301.56,343.6Z" transform="translate(-128.11 -182.07)"></path><path class="cls-1" d="M356.72,353.86a11.58,11.58,0,0,1-7.51,2.86c-4.92,0-8.62-2.86-8.62-7.4v-.08c0-3.26,1.76-5.57,5-7a8.58,8.58,0,0,1-1.8-5.14V337c0-3.52,2.82-6.74,7.77-6.74,4.36,0,7.22,2.85,7.22,6.45v.07c0,3.45-2.2,5.46-5.39,6.71l3.41,3.41c.85-1.32,1.69-2.83,2.5-4.4l4.14,2.27a46.8,46.8,0,0,1-3.38,5.43l3.78,3.77-4.14,2.9Zm-3.15-3.22-4.91-5a3.84,3.84,0,0,0-2.39,3.37v.08c0,1.79,1.51,3,3.6,3A6.13,6.13,0,0,0,353.57,350.64Zm.29-13.53V337a2.26,2.26,0,0,0-2.42-2.39,2.42,2.42,0,0,0-2.49,2.61v.07a4.58,4.58,0,0,0,1.5,3.19C352.69,339.68,353.86,338.72,353.86,337.11Z" transform="translate(-128.11 -182.07)"></path><path class="cls-1" d="M378.93,330.7h10c8.06,0,13.64,5.53,13.64,12.75v.08c0,7.22-5.58,12.82-13.64,12.82h-10Zm10,20.56a7.32,7.32,0,0,0,7.74-7.66v-.07a7.38,7.38,0,0,0-7.74-7.74h-4.36v15.47Z" transform="translate(-128.11 -182.07)"></path><path class="cls-1" d="M407.84,330.7h5.64v25.65h-5.64Z" transform="translate(-128.11 -182.07)"></path><path class="cls-1" d="M418.14,352.61l3.33-4a11.76,11.76,0,0,0,7.66,3.12c2.31,0,3.71-.92,3.71-2.42v-.08c0-1.43-.88-2.16-5.17-3.26-5.17-1.32-8.51-2.75-8.51-7.84v-.08c0-4.65,3.74-7.73,9-7.73a14.84,14.84,0,0,1,9.53,3.26l-2.93,4.25a12.08,12.08,0,0,0-6.67-2.53c-2.16,0-3.3,1-3.3,2.24v.07c0,1.69,1.1,2.24,5.54,3.38,5.2,1.35,8.13,3.22,8.13,7.69v.08c0,5.09-3.88,8-9.42,8A16.32,16.32,0,0,1,418.14,352.61Z" transform="translate(-128.11 -182.07)"></path><path class="cls-1" d="M443.61,330.7h5.64v25.65h-5.64Z" transform="translate(-128.11 -182.07)"></path><path class="cls-1" d="M455.67,330.7h5.2l12,15.79V330.7h5.57v25.65h-4.8L461.24,340v16.31h-5.57Z" transform="translate(-128.11 -182.07)"></path><path class="cls-1" d="M484.62,330.7h19.53v5.13H490.26v5.46H502.5v5.13H490.26v9.93h-5.64Z" transform="translate(-128.11 -182.07)"></path><path class="cls-1" d="M508.66,330.7H528v5H514.27v5.2h12.09v5H514.27v5.39h13.92v5H508.66Z" transform="translate(-128.11 -182.07)"></path><path class="cls-1" d="M532.08,343.6v-.07a13,13,0,0,1,13.37-13.27,13.23,13.23,0,0,1,10.12,4L552,338.36a9.47,9.47,0,0,0-6.56-2.9c-4.33,0-7.44,3.59-7.44,8v.08c0,4.39,3,8.06,7.44,8.06,2.93,0,4.73-1.17,6.74-3l3.59,3.63a13.12,13.12,0,0,1-10.52,4.58A12.94,12.94,0,0,1,532.08,343.6Z" transform="translate(-128.11 -182.07)"></path><path class="cls-1" d="M566.23,335.9h-7.8v-5.2h21.26v5.2h-7.81v20.45h-5.65Z" transform="translate(-128.11 -182.07)"></path><path class="cls-1" d="M584.26,330.7h5.65v25.65h-5.65Z" transform="translate(-128.11 -182.07)"></path><path class="cls-1" d="M596.32,330.7h5.2l12,15.79V330.7h5.57v25.65h-4.8L601.89,340v16.31h-5.57Z" transform="translate(-128.11 -182.07)"></path><path class="cls-1" d="M624.13,343.6v-.07a13.17,13.17,0,0,1,13.46-13.27,14.1,14.1,0,0,1,10.08,3.51l-3.56,4.29a9.45,9.45,0,0,0-6.71-2.6c-4.1,0-7.36,3.63-7.36,8v.08c0,4.69,3.22,8.13,7.77,8.13a9,9,0,0,0,5.31-1.54v-3.66h-5.68v-4.88h11.14v11.14a16.64,16.64,0,0,1-11,4.07C629.63,356.79,624.13,351.19,624.13,343.6Z" transform="translate(-128.11 -182.07)"></path><path class="cls-1" d="M653.85,187.74h-3.3V185.8h8.89v1.94h-3.3v9h-2.29Z" transform="translate(-128.11 -182.07)"></path><path class="cls-1" d="M662.82,196.74h-2.13V185.8H664l2,8.67h0l2-8.67h3.31v10.94h-2.14v-9.2h0l-2,9.2h-2.25l-2-9.4h0Z" transform="translate(-128.11 -182.07)"></path></svg> 